<svg width="50" height="100" viewBox="0 0 50 100" fill="none" xmlns="http://www.w3.org/2000/svg">
<path d="M0 97C0 98.6569 1.34472 100.009 2.99859 99.9101C15.1656 99.1796 26.6878 94.0229 35.3553 85.3553C44.7322 75.9785 50 63.2608 50 50C50 36.7392 44.7322 24.0215 35.3553 14.6447C26.6878 5.9771 15.1656 0.820425 2.9986 0.0899163C1.34473 -0.00938246 7.62939e-06 1.34315 7.62939e-06 3C7.62939e-06 4.65685 1.34496 5.98934 2.99797 6.10217C13.5724 6.82391 23.5706 11.3452 31.1127 18.8873C39.3643 27.1389 44 38.3305 44 50C44 61.6695 39.3643 72.8611 31.1127 81.1127C23.5706 88.6548 13.5723 93.1761 2.99796 93.8978C1.34495 94.0107 0 95.3431 0 97Z" fill="#17A43B"/>
</svg>
