<svg width="16" height="16" viewBox="0 0 16 16" fill="none" xmlns="http://www.w3.org/2000/svg">
<g clip-path="url(#clip0_216_281)">
<path d="M3.65447 1.32799C3.59544 1.25205 3.52092 1.18954 3.43587 1.14461C3.35082 1.09969 3.25719 1.07337 3.16119 1.06741C3.06519 1.06145 2.96902 1.07599 2.87907 1.11005C2.78912 1.14412 2.70744 1.19693 2.63947 1.26499L1.60547 2.29999C1.12247 2.78399 0.944471 3.46899 1.15547 4.06999C2.03121 6.55758 3.45577 8.81609 5.32347 10.678C7.1854 12.5457 9.4439 13.9702 11.9315 14.846C12.5325 15.057 13.2175 14.879 13.7015 14.396L14.7355 13.362C14.8035 13.294 14.8563 13.2123 14.8904 13.1224C14.9245 13.0324 14.939 12.9363 14.933 12.8403C14.9271 12.7443 14.9008 12.6506 14.8558 12.5656C14.8109 12.4805 14.7484 12.406 14.6725 12.347L12.3655 10.553C12.2843 10.4901 12.19 10.4464 12.0895 10.4253C11.989 10.4041 11.8851 10.4061 11.7855 10.431L9.59547 10.978C9.30315 11.0511 8.99689 11.0472 8.70652 10.9667C8.41614 10.8863 8.15154 10.732 7.93847 10.519L5.48247 8.06199C5.26924 7.84903 5.1148 7.58447 5.03418 7.29409C4.95357 7.00371 4.94954 6.6974 5.02247 6.40499L5.57047 4.21499C5.59538 4.11539 5.59734 4.01143 5.57621 3.91095C5.55507 3.81048 5.51139 3.71612 5.44847 3.63499L3.65447 1.32799ZM1.88447 0.51099C2.05947 0.335939 2.2697 0.20012 2.50121 0.112551C2.73272 0.0249819 2.98021 -0.0123334 3.22725 0.00308286C3.47429 0.0184991 3.71522 0.0862943 3.93405 0.201967C4.15288 0.317639 4.3446 0.478541 4.49647 0.67399L6.29047 2.97999C6.61947 3.40299 6.73547 3.95399 6.60547 4.47399L6.05847 6.66399C6.03019 6.77742 6.03172 6.89623 6.06291 7.0089C6.0941 7.12156 6.15388 7.22425 6.23647 7.30699L8.69347 9.76399C8.77631 9.84674 8.87916 9.90663 8.99202 9.93783C9.10488 9.96902 9.22389 9.97046 9.33747 9.94199L11.5265 9.39499C11.7831 9.33083 12.0509 9.32584 12.3098 9.38042C12.5686 9.43499 12.8116 9.54768 13.0205 9.70999L15.3265 11.504C16.1555 12.149 16.2315 13.374 15.4895 14.115L14.4555 15.149C13.7155 15.889 12.6095 16.214 11.5785 15.851C8.93965 14.9225 6.54374 13.4118 4.56847 11.431C2.58776 9.45601 1.07708 7.06045 0.148471 4.42199C-0.213529 3.39199 0.111471 2.28499 0.851471 1.54499L1.88547 0.51099H1.88447Z" fill="black"/>
</g>
<defs>
<clipPath id="clip0_216_281">
<rect width="16" height="16" fill="white"/>
</clipPath>
</defs>
</svg>
